<?xml version="1.0" encoding="utf-8"?>
<!-- Generator: Adobe Illustrator 24.0.0, SVG Export Plug-In . SVG Version: 6.00 Build 0)  -->
<svg version="1.1" id="OBJECTS" xmlns="http://www.w3.org/2000/svg" xmlns:xlink="http://www.w3.org/1999/xlink" x="0px" y="0px"
	 viewBox="0 0 780.89 500" style="enable-background:new 0 0 780.89 500;" xml:space="preserve">
<polygon points="429.03,471.93 16.2,471.93 16.2,428.32 "/>
<polygon points="353.26,493.74 766.09,493.74 766.09,450.13 "/>
<g>
	<path d="M283.1,159.07c-24.88-8.74-58.59-1.92-79.61,4.2c-1.06-0.16-1.34-0.78-1.12-1.59c11.52-3.78,30.74-10.44,30.74-10.44
		s-5.28,1.13-12.1,0c13.62-1.98,31.89-8.51,43.4-19.48c-7.17,0.55-20.05-1.72-20.05-1.72s17.17-0.6,22.42-2.05
		c15.33-14.18,12.67-35.02,12.67-35.02s-11.88,3.72-20.28,6.66c11.56-9.13,22.01-13.86,22.01-13.86s3.88-19.37-10.13-62.46
		c-1.74,13.09-17.86,41.78-24.1,43.45c2.65,5.26,5.5,17.41,5.5,17.41s-4.22-5.11-8-13.69c-1.26,9.49-11,26.44-26.53,33.73
		c3.84,6.48,6.44,26.7,6.44,26.7s-8.24-8.79-12.63-20.48c-0.51,12.39,6.32,25.72,7.06,27.13c0.04,0.08,0.07,0.14,0.07,0.14
		s-0.03-0.06-0.07-0.14c-0.49-0.92-3.72-6.72-9.67-11.8c1.93,11.41-3.23,24.42-8.64,32.29c-1.36-0.23-2.44-0.75-3.19-1.5
		c0.29-9.48,3.49-29.38,10.45-43.02c-5.07,7.18-11.61,17.59-11.61,17.59s8.87-26.81,25.57-42.1c-9.11,5.83-25.8,34.83-25.8,34.83
		s6.85-14.32,5.53-22.12c-1.33-7.8-5.34-17.95-3.02-25.33c-5.13,2.58-12.81,15.93-12.81,15.93s9.03-17.39,8.48-22.72
		c-0.55-5.33-4.51-16.44-11.45-22.39c-1.21,9.87-8.66,17.86-8.66,17.86s8.35-18.74,7.75-28.99c-4.55,18.48-9.88,25.77-9.88,25.77
		s4.76-16.76,3.43-19.24c-1.33-2.47-12.42-10.91-19.69-14.05c2.75,5.53-0.83,15.35-0.83,15.35s-2.18-15.43-8.9-19.44
		s-19.01-7.37-19.01-7.37s6.46,7.18,8.86,20.08c2.4,12.9,4.49,26.88,11.38,31.29c6.89,4.41,15.59,9.74,15.59,9.74
		s-15.32-8.77-26.09-2.6c9.97-1.58,23.15,0.92,32.93,8.52c-8.6,2.54-17.13,0.11-20.49-2.17c6.55,9.5,19.29,20.97,18.23,30.46
		c10.15,4.7,14.72,5.81,14.72,5.81s-15.15-0.21-26.33-5.63c9.15,6.7,27.89,10.59,27.89,10.59s-6.48,1.84-11.28,0.74
		c7.5,3.67,11.54,9.26,16.28,18.93c2.77,5.65,3.93,9.49,4.51,12.15c-0.28-0.08-0.56-0.19-0.84-0.33c-0.25-0.59-0.51-1.18-0.8-1.75
		c-27.08-36.21-73.86-65.03-79.15-67.26c-5.29-2.23-8.2-4.08-11.82-3.13c-3.63,0.95-39.28,15.38-45.61,19.09l6.83,4.82
		c0,0,20.6-11.57,41.66-15.91c-16.26,6.92-42.12,19.9-42.12,19.9s12.62,4.35,17.12,8.63c7.55-12.47,19.26-16.98,30.49-19.33
		c-20.57,8.69-25.87,23.3-25.87,23.3l11.19,5.24c0,0,10.14-16.35,18.82-20.05c-6.21,5.74-15.29,21.24-15.66,31.06
		c9.42-24.78,19.18-27.52,19.18-27.52s-7.06,11.21-9.27,18.32c6.48-3.64,11.17,3.42,13.91,1.95c2.74-1.47,15.5-11.02,15.5-11.02
		s-5.83,12.23-5.6,21.92c0.62-3.93,5.42-14.92,5.33-14.23c-0.09,0.69-1.36,10.52-1.36,10.52s-0.49,1.26,3.91,2.06
		c3.66-7.1,10.45-10.62,10.45-10.62s-3.34,7.22-3.65,10.36c-0.31,3.14,3.1,5.55,3.1,5.55s3.16-6.74,5.83-8.97
		c-2.45,5.39-2.61,10.94-2.61,10.94l8.08,4.4c0,0,0.83-4.93,4.55-11.28c0.25,5.89-2.48,17.15-2.48,17.15s4.21,0.36,5.39-0.81
		c1.18-1.17,3.19-4.02,5.39-12.04c1.14,6.42-0.6,11.36-0.6,11.36l7.58,4.75c0,0,1.55-4.47,2.59-3.89c0.68,0.38,3.34,4.24,6.03,6.97
		c-0.02,1.11-0.46,2.08-1.47,2.84c-5.86-1.14-12.44-3.07-21.41-4.68c5.12,3.08,6,7.54,6,7.54s-14.49-10.42-20.6-10.59
		c-6.11-0.17-15.71-0.19-15.71-0.19s13.62,2.4,16.42,10.76c-16.24-9.45-29.85-13.63-31.33-14.06c-2.28,0.21-7.98,2.53-7.98,2.53
		s17.88,3.09,35.6,12.97c-14.6-5.52-23.39-7.28-28.51-6.11c-5.12,1.17-16.62,1.79-27.44,14.48c13.05-4.28,25.33-0.89,25.33-0.89
		s-29.67,6.07-46.83,12.46c19.87-2.04,37.64-6.82,37.64-6.82s-23.18,7.76-26.14,9.36c-2.95,1.6-9.31,11.63-9.31,11.63
		s18.2-9.42,26.23-9.6c-13.64,6.52-25.49,16.2-27.6,19.5c-2.1,3.3-6.66,15.4-6.66,15.4s16.86-19.41,26.19-22.24
		c-12.88,13.4-18.31,23.51-20.3,28.64c-1.99,5.13-8.39,19.53-8.39,19.53s9.23-3.28,12.23-7.48c3-4.19,4.09-17.63,15.05-25.73
		c-8.73,14.73-12.59,25.04-13.73,33.66c5.13-13.25,12.45-31.41,22.52-40.41c-9.62,19.88-12.61,27.23-12.61,27.23
		s9.88-4.95,12.9-9.55c3.02-4.6,9.39-21.75,13.47-27.31c-5.55,12.54-6.96,20.09-6.96,20.09c2.67-4.05,7.08-4.81,8.98-7.23
		c1.9-2.42,1.24-10.64,4.88-17.19c-1.25,9.95-1.04,20.05-0.21,24.62c3.87-7.15,10.47-7.88,13.59-11.34c3.12-3.46,6.32-11,6.32-11
		s-3.79,14.73-2.22,18.49c2.06-11.69,6.19-25.19,11.24-31.47c-3.85,11-4.75,17.92-4.75,17.92s7.26-21.21,17.52-26.43
		c-8.27,12.85-11.96,21.3-11.96,21.3s14.65-9.83,21.26-16.6c6.61-6.77,11.62-11.56,17.23-15.42c0.45-0.3,0.86-0.59,1.24-0.87
		c1.08,1.93,1.15,3.96,0.89,5.39c0,0,0,0,0,0c-21.94,78.02-21.86,286.39-21.86,286.39s27.53-0.54,28.47-0.02
		c-1.04-1.14-20.14-232.08,0.64-289.38c0.35-0.02,0.7-0.01,1.04,0.01c2.6,7.09,5.02,17.28,3.41,24.11
		c-2.44,10.4,0.68,24.05,0.68,24.05s4.44-13.65,7.75-19.69c-1.82,15.4-7.09,30.56-7.09,30.56s6.92-12.2,8.15-18.19
		c-2.36,14.58-14.34,33.85-14.03,43.12c6.93-15.37,15.65-37.24,15.65-37.24s-5.98,21.72-3,29.46c2.98,7.74,4.11,13.31,4.11,13.31
		S223.29,249,228,246.92c-7.89,12.8-13.58,23.4-13.58,23.4l3.06,5.95c0,0,10.04-14.56,13.63-23.3c0.4-1.28,0.81-2.61,1.22-4
		c-0.14,1.07-0.58,2.45-1.22,4c-6.05,19.18-11.34,26.18-12.87,29.82c-1.63,3.88,0.02,13.18,2.26,17.47
		c5.98-13.54,13.73-29.45,13.73-29.45s-7.76,24.44-10.32,32.6c-2.55,8.16-2.63,10.57-2.63,10.57s10.1-21.34,12.68-30.83
		c-2.45,17.96-7.1,27.14-7.83,30.27c-0.73,3.13-0.46,8.12,3.45,14.39c4.45-10.84,14.69-36.64,14.85-52.8
		c2.48,9.01,1.12,23.86,1.12,23.86s15.27-20.19,2.79-38.69c6.98,4.66,12.94,19.17,13.96,25.05c1.91-7.44-0.27-16.94-4.08-22.2
		c-3.82-5.26-11.77-19.69-11.77-19.69s10.4,6.23,13.68,14.45c1.07-12.52-4.62-34.36-10.75-42.47c-1.53-2.67-22.77-9.56-22.77-9.56
		s17.99,3.31,35.78,11.55c-18.27-11.1-38.25-14.95-38.42-15.13c-0.17-0.19,9.13-1.83,20.01,2.51
		c-8.71-12.16-16.55-16.78-19.45-17.18c-2.9-0.39-13.07-1.53-13.07-1.53s5.8-2.39,10.8-1.43c-7.66-5.41-13.43-5.33-17.09-7.84
		c-1.48-1.02-3.63-2.69-5.68-4.33c-0.04-2.2,0.49-4.36,1.57-6.04c3.14,0.59,4.72,1.37,4.81,1.95c0.13,0.84-2.36,3.74-2.36,3.74
		s3.52,2.04,6.53,2.76c2.16-2.34,4.92-9.78,4.92-9.78s0.73,7.2-2.44,10.97c1.89,1.87,5.65,0.94,5.65,0.94s3.24-6.01,3.66-10.04
		c0.59,5.22-0.76,10.14-0.76,10.14s4.16,1.27,6.32,0.97c1.38-3.55,2.45-7.79,2.45-7.79s1.09,6.55,0.37,8.42
		c1.64,0.75,3.4-0.27,3.4-0.27s2.29-6.49,2.27-10.24c1.49,5.23,1.53,9.22,1.53,9.22l8.11,1.33c0,0,4.61-9.56,2.91-20.09
		c4.21,11.96,2.71,21.7,2.71,21.7s3.75-0.02,8.07,5.51c4.08-4.09,4.38-18.61,4.44-24.03c3.41,9.94,2.18,18.66,0.09,26.69
		c2.89,2.48,6.72,5.21,6.72,5.21s10.6-15.06,13.24-20.39c-3.27,10.19-12.57,22.47-12.57,22.47l1.14,1.46
		c0,0,13.94-13.43,16.89-18.41c-5.38,11.53-21.65,30.41-21.65,30.41s14.63-15.2,22.53-27.11c-2.9,8.07-17.1,26.27-17.1,26.27
		l4.1,8.17c0,0,15.32-18.45,20.86-30.71c-1.81,12.57-19.4,33.66-19.4,33.66l2.18,9.01c12.72-6.19,28.16-19.38,31.86-30.99
		C316.27,185.88,311.35,169,283.1,159.07z M222.33,142.71c3.19-3.75,6.14-7.68,8.97-11.69c5.62-8.06,10.59-16.56,15.1-25.3
		c1.2-2.15,2.23-4.38,3.35-6.58c1.11-2.2,2.19-4.41,3.21-6.65l3.13-6.69l2.96-6.77l1.5-3.38l1.41-3.42l2.86-6.83
		c1.93-4.55,3.64-9.18,5.59-13.74c-0.69,2.38-1.39,4.75-2.13,7.11c-0.74,2.36-1.42,4.75-2.22,7.09c-1.67,4.66-3.18,9.39-5.07,13.97
		c-3.49,9.28-7.69,18.3-12.21,27.14c-4.61,8.8-9.74,17.36-15.79,25.28c-3.01,3.96-6.23,7.77-9.69,11.35
		c-3.52,3.52-7.2,6.87-11.16,9.83C215.71,150,219.18,146.49,222.33,142.71z M218.52,200.62c4.16,7,7.69,14.38,10.76,21.92
		c3,7.57,5.49,15.34,7.51,23.21c2.09,7.86,3.41,15.89,4.46,23.93c-1.14-3.9-1.92-7.87-3.12-11.73l-1.61-5.84l-1.74-5.79
		c-2.4-7.69-4.97-15.32-7.98-22.78c-2.98-7.47-6.35-14.77-10.09-21.89c-1.93-3.52-3.86-7.06-6-10.47c-2.07-3.47-4.34-6.8-6.71-10.09
		C209.57,186.97,214.34,193.63,218.52,200.62z M179.48,99.14c-3.46-8.51-7.39-16.82-11.72-24.92c-1.09-2.02-2.18-4.05-3.35-6.03
		c-1.12-2.01-2.31-3.98-3.51-5.94c-2.38-3.94-4.93-7.78-7.66-11.52c6.28,6.81,11.6,14.49,16.33,22.46
		c4.75,7.98,8.84,16.35,12.39,24.93c3.5,8.6,6.47,17.42,8.8,26.4c2.29,9,3.88,18.15,4.86,27.35c-2.01-9.04-4.27-17.96-6.88-26.78
		C186.02,116.31,182.99,107.63,179.48,99.14z M171.83,175.48c-3.66,0.87-7.24,2.04-10.82,3.19l-5.31,1.9l-5.25,2.06l-5.2,2.19
		l-5.13,2.35c-6.81,3.19-13.45,6.75-20,10.47l-4.88,2.87c-1.63,0.95-3.21,1.98-4.83,2.97c-3.29,1.88-6.35,4.1-9.61,6.06
		c5.78-4.92,11.81-9.58,18.22-13.68c6.4-4.13,13.07-7.84,19.96-11.12c6.91-3.23,14.05-6,21.4-8.07c3.69-1,7.4-1.91,11.18-2.48
		c3.77-0.53,7.59-1,11.39-0.71C179.18,173.81,175.47,174.53,171.83,175.48z"/>
	<path d="M193.34,464.66c0,0,0.03-28.24,2.35,0C195.7,464.69,193.38,464.68,193.34,464.66z"/>
</g>
<g>
	<path d="M696.9,474C696.9,474,696.9,474,696.9,474C696.89,474.01,696.88,474.01,696.9,474z"/>
	<path d="M754.93,304.39c5.58,1.55,15.85,12.81,15.85,12.81s-2.87-7.11-4.17-9.04c-1.29-1.93-8.46-7.5-16.64-11.16
		c4.76-0.01,15.69,5.31,15.69,5.31s-3.91-5.85-5.69-6.76c-1.77-0.91-15.63-5.17-15.63-5.17s10.61,2.58,22.42,3.5
		c-10.27-3.54-27.95-6.71-27.95-6.71s7.23-2.18,15.03,0.16c-6.6-7.37-13.42-7.57-16.48-8.19c-3.05-0.62-8.24,0.55-16.82,4.03
		c10.36-6.12,20.92-8.21,20.92-8.21s-3.41-1.29-4.77-1.39c-0.87,0.28-8.88,2.95-18.38,8.79c1.54-5,9.58-6.61,9.58-6.61
		s-5.69,0.15-9.31,0.34c-3.62,0.19-12.06,6.58-12.06,6.58s0.46-2.66,3.45-4.56c-5.3,1.08-9.17,2.32-12.63,3.08
		c-0.61-0.43-0.88-1-0.91-1.66c1.55-1.66,3.07-3.98,3.47-4.22c0.61-0.36,1.59,2.27,1.59,2.27l4.42-2.92c0,0-1.1-2.91-0.52-6.73
		c1.42,4.72,2.65,6.38,3.37,7.06c0.72,0.68,3.2,0.4,3.2,0.4s-1.78-6.63-1.72-10.13c2.3,3.71,2.86,6.62,2.86,6.62l4.72-2.72
		c0,0-0.17-3.29-1.71-6.45c1.62,1.28,3.59,5.23,3.59,5.23s1.99-1.48,1.76-3.33c-0.23-1.86-2.31-6.09-2.31-6.09s4.08,1.99,6.35,6.14
		c2.6-0.54,2.29-1.28,2.29-1.28s-0.9-5.81-0.96-6.22c-0.06-0.41,2.95,6.04,3.37,8.36c0-5.75-3.64-12.91-3.64-12.91
		s7.7,5.48,9.35,6.31c1.65,0.83,4.32-3.43,8.22-1.36c-1.41-4.18-5.76-10.73-5.76-10.73s5.82,1.48,11.77,16.04
		c-0.36-5.82-5.97-14.87-9.73-18.19c5.2,2.07,11.45,11.62,11.45,11.62l6.56-3.27c0,0-3.35-8.59-15.68-13.44
		c6.69,1.23,13.7,3.74,18.36,11.02c2.61-2.6,10.03-5.36,10.03-5.36s-15.52-7.32-25.26-11.19c12.55,2.27,24.93,8.83,24.93,8.83
		l3.98-2.96c-3.8-2.11-25.16-10.15-27.32-10.66s-3.86,0.63-6.97,2.03s-30.43,19.16-45.96,41.03c-0.16,0.34-0.31,0.7-0.45,1.05
		c-0.16,0.09-0.33,0.15-0.49,0.21c0.3-1.59,0.94-3.88,2.5-7.27c2.67-5.8,4.98-9.18,9.38-11.46c-2.83,0.72-6.7-0.28-6.7-0.28
		s11.05-2.58,16.38-6.68c-6.55,3.37-15.53,3.72-15.53,3.72s2.69-0.73,8.64-3.66c-0.77-5.61,6.62-12.6,10.37-18.32
		c-1.96,1.4-6.98,2.97-12.12,1.58c5.69-4.65,13.47-6.32,19.4-5.53c-6.47-3.5-15.43,1.92-15.43,1.92s5.08-3.29,9.1-6
		c4.02-2.71,5.06-11.03,6.29-18.72c1.24-7.68,4.97-12.04,4.97-12.04s-7.25,2.17-11.17,4.64c-3.92,2.48-4.99,11.66-4.99,11.66
		s-2.27-5.77-0.72-9.09c-4.26,1.97-10.72,7.13-11.47,8.62c-0.75,1.49,2.31,11.36,2.31,11.36s-3.27-4.25-6.23-15.14
		c-0.21,6.08,5.02,17.08,5.02,17.08s-4.53-4.63-5.39-10.47c-4.03,3.63-6.22,10.28-6.47,13.44c-0.25,3.17,5.36,13.35,5.36,13.35
		s-4.74-7.8-7.83-9.26c1.48,4.34-0.75,10.41-1.43,15.06c-0.67,4.65,3.6,13.04,3.6,13.04s-10.31-16.96-15.8-20.28
		c10.12,8.83,15.77,24.6,15.77,24.6s-4.03-6.08-7.14-10.26c4.32,7.98,6.5,19.71,6.82,25.34c-0.43,0.46-1.06,0.79-1.87,0.95
		c-3.33-4.58-6.57-12.22-5.59-19.02c-3.45,3.1-5.28,6.58-5.56,7.14c0.42-0.84,4.27-8.84,3.79-16.19c-2.44,6.99-7.2,12.32-7.2,12.32
		s1.25-12.03,3.43-15.92c-9.31-4.1-15.34-14.01-16.22-19.62c-2.12,5.14-4.55,8.23-4.55,8.23s1.52-7.24,3.01-10.4
		c-3.72-0.9-13.69-17.68-14.92-25.41c-7.68,25.75-5.1,37.18-5.1,37.18s6.27,2.65,13.25,7.9c-5.02-1.63-12.12-3.66-12.12-3.66
		s-1.28,12.4,8.02,20.58c3.13,0.78,13.32,0.89,13.32,0.89s-7.61,1.53-11.87,1.31c6.98,6.34,17.91,9.95,26.01,10.92
		c-4.03,0.77-7.17,0.18-7.17,0.18s11.49,3.67,18.38,5.75c0.14,0.48-0.02,0.85-0.64,0.96c-12.55-3.33-32.64-6.88-47.26-1.34
		c-16.61,6.3-19.28,16.38-16.92,23.21c2.36,6.83,11.71,14.43,19.34,17.91l1.16-5.38c0,0-10.73-12.25-11.99-19.68
		c3.46,7.19,12.82,17.91,12.82,17.91l2.31-4.9c0,0-8.68-10.59-10.52-15.33c4.86,6.95,13.75,15.75,13.75,15.75
		s-9.92-10.96-13.28-17.72c1.82,2.91,10.28,10.67,10.28,10.67l0.65-0.88c0,0-5.69-7.15-7.78-13.14c1.64,3.12,8.14,11.9,8.14,11.9
		s2.23-1.67,3.91-3.19c-1.36-4.74-2.21-9.89-0.33-15.83c0.11,3.21,0.5,11.82,2.98,14.19c2.48-3.34,4.71-3.38,4.71-3.38
		s-1.03-5.75,1.29-12.9c-0.86,6.27,2.01,11.87,2.01,11.87l4.79-0.9c0,0-0.03-2.36,0.78-5.49c0.04,2.22,1.49,6.04,1.49,6.04
		s1.06,0.58,2.02,0.11c-0.46-1.1,0.1-5,0.1-5s0.7,2.5,1.57,4.58c1.28,0.15,3.73-0.67,3.73-0.67s-0.87-2.9-0.59-6
		c0.31,2.38,2.32,5.9,2.32,5.9s2.24,0.49,3.34-0.64c-1.93-2.19-1.6-6.47-1.6-6.47s1.75,4.37,3.06,5.73
		c1.78-0.47,3.83-1.73,3.83-1.73s-1.51-1.68-1.45-2.18c0.04-0.34,0.99-0.83,2.83-1.22c0.66,0.98,1.01,2.25,1.02,3.55
		c-1.19,1-2.44,2.02-3.3,2.65c-2.13,1.55-5.55,1.58-10.02,4.9c2.95-0.64,6.42,0.69,6.42,0.69s-6.02,0.82-7.73,1.1
		c-1.71,0.27-6.3,3.13-11.28,10.47c6.39-2.73,11.93-1.89,11.83-1.78c-0.1,0.11-11.89,2.68-22.56,9.53
		c10.43-5.14,21.05-7.37,21.05-7.37s-12.5,4.39-13.36,6c-3.52,4.9-6.57,17.93-5.76,25.34c1.83-4.92,7.9-8.77,7.9-8.77
		s-4.51,8.67-6.69,11.84c-2.19,3.17-3.34,8.84-2.1,13.22c0.52-3.5,3.84-12.19,7.91-15.06c-7.13,11.15,2.22,22.9,2.22,22.9
		s-1.02-8.78,0.32-14.16c0.33,9.58,6.78,24.73,9.57,31.09c2.23-3.78,2.31-6.74,1.84-8.58c-0.48-1.85-3.37-7.22-5.08-17.84
		c1.67,5.59,7.96,18.1,7.96,18.1s-0.08-1.43-1.71-6.23c-1.63-4.8-6.59-19.18-6.59-19.18s4.83,9.32,8.57,17.26
		c1.27-2.57,2.11-8.11,1.09-10.39c-0.96-2.14-4.2-6.21-8.06-17.5c-0.4-0.91-0.68-1.72-0.78-2.36c0.26,0.82,0.52,1.6,0.78,2.36
		c2.26,5.13,8.42,13.62,8.42,13.62l1.73-3.57c0,0-3.53-6.2-8.39-13.68c2.82,1.16,9.14,10.38,9.14,10.38s0.59-3.32,2.25-7.95
		c1.65-4.63-2.2-17.42-2.2-17.42s5.49,12.84,9.82,21.86c0.05-5.5-7.33-16.75-8.94-25.36c0.81,3.54,5.09,10.67,5.09,10.67
		s-3.34-8.91-4.64-18.02c2.05,3.53,4.88,11.56,4.88,11.56s1.66-8.14,0.06-14.27c-1.05-4.03,0.24-10.1,1.68-14.34
		c0.2-0.02,0.41-0.03,0.62-0.03c13.15,33.68,5.57,187.63,4.97,188.32c0.55-0.32,16.73-8.47,16.73-8.47s-3.22-132.23-17.36-178.18
		c0,0,0,0,0,0c-0.18-0.85-0.17-2.05,0.45-3.21c0.23,0.16,0.47,0.33,0.75,0.5c3.39,2.21,6.43,4.97,10.44,8.89
		c4.01,3.92,12.85,9.54,12.85,9.54s-2.31-4.96-7.4-12.46c6.16,2.95,10.77,15.42,10.77,15.42s-0.63-4.09-3.08-10.56
		c3.08,3.65,5.73,11.59,7.12,18.5c0.87-2.25-1.59-10.93-1.59-10.93s2.01,4.43,3.91,6.43c1.9,2,5.83,2.35,8.22,6.53
		c0.43-2.73,0.4-8.72-0.48-14.6c2.25,3.83,1.98,8.71,3.14,10.12c1.16,1.41,3.79,1.8,5.43,4.16c0,0-0.95-4.46-4.42-11.81
		c2.5,3.24,6.52,13.32,8.38,16c1.85,2.68,7.79,5.48,7.79,5.48s-1.88-4.32-7.87-15.96c6.1,5.19,10.7,15.85,13.94,23.63
		c-0.8-5.09-3.24-11.15-8.63-19.76c6.62,4.65,7.46,12.6,9.3,15.04c1.84,2.44,7.36,4.26,7.36,4.26s-4.01-8.45-5.26-11.46
		C766.12,318.07,762.76,312.15,754.93,304.39z M675.49,267.27c-2.1-2.07-4.06-4.28-5.91-6.59c-3.7-4.61-6.87-9.61-9.73-14.76
		c-2.81-5.18-5.43-10.46-7.63-15.92c-1.19-2.69-2.15-5.47-3.21-8.21c-0.51-1.38-0.95-2.78-1.42-4.17c-0.47-1.39-0.93-2.79-1.37-4.19
		c1.22,2.67,2.31,5.4,3.51,8.07l1.79,4.01l0.89,2.01l0.94,1.98l1.86,3.97l1.95,3.92c0.63,1.32,1.31,2.61,2,3.9
		c0.69,1.28,1.34,2.6,2.08,3.85c2.8,5.12,5.87,10.09,9.32,14.78c1.73,2.34,3.54,4.63,5.49,6.8c1.93,2.19,4.03,4.22,6.2,6.21
		C679.85,271.24,677.62,269.31,675.49,267.27z M683.65,295.3c-1.22,2.05-2.31,4.18-3.41,6.3c-2.11,4.28-4.01,8.66-5.67,13.13
		c-1.67,4.47-3.09,9.03-4.4,13.62l-0.95,3.46l-0.87,3.48c-0.66,2.31-1.06,4.67-1.68,7c0.51-4.78,1.18-9.56,2.3-14.25
		c1.08-4.7,2.45-9.34,4.12-13.87c1.71-4.52,3.69-8.94,6.06-13.15c2.37-4.2,5.11-8.23,8.33-11.8
		C686.12,291.2,684.82,293.21,683.65,295.3z M694.5,255.5c1.26-5.36,2.89-10.63,4.84-15.78c1.98-5.14,4.28-10.16,6.98-14.96
		c2.69-4.8,5.73-9.43,9.36-13.56c-1.56,2.26-3.02,4.57-4.37,6.94c-0.69,1.18-1.36,2.36-2,3.57c-0.66,1.19-1.28,2.41-1.9,3.62
		c-2.45,4.87-4.66,9.86-6.59,14.95c-1.96,5.08-3.63,10.27-5.12,15.52c-1.42,5.27-2.63,10.59-3.69,15.98
		C692.46,266.32,693.28,260.86,694.5,255.5z M743.28,301.15c-0.97-0.56-1.92-1.15-2.9-1.69l-2.93-1.63
		c-3.94-2.11-7.93-4.13-12.01-5.92l-3.07-1.32l-3.11-1.22l-3.14-1.15l-3.17-1.05c-2.14-0.63-4.28-1.27-6.46-1.73
		c-2.17-0.51-4.38-0.89-6.63-1.02c2.25-0.23,4.52-0.01,6.76,0.25c2.25,0.28,4.46,0.77,6.66,1.31c4.39,1.12,8.66,2.66,12.8,4.48
		c4.13,1.84,8.14,3.95,11.99,6.3c3.86,2.34,7.51,5.02,11,7.85C747.1,303.5,745.26,302.22,743.28,301.15z"/>
</g>
<g>
	<path d="M132.13,319.03c-10.3-3.62-24.26-0.79-32.95,1.74c-0.44-0.07-0.56-0.32-0.47-0.66c4.77-1.56,12.73-4.32,12.73-4.32
		s-2.19,0.47-5.01,0c5.64-0.82,13.2-3.52,17.97-8.07c-2.97,0.23-8.3-0.71-8.3-0.71s7.11-0.25,9.28-0.85
		c6.34-5.87,5.24-14.5,5.24-14.5s-4.92,1.54-8.39,2.76c4.78-3.78,9.11-5.74,9.11-5.74s1.61-8.02-4.19-25.86
		c-0.72,5.42-7.39,17.3-9.98,17.99c1.1,2.18,2.28,7.21,2.28,7.21s-1.75-2.12-3.31-5.67c-0.52,3.93-4.56,10.95-10.98,13.96
		c1.59,2.68,2.67,11.05,2.67,11.05s-3.41-3.64-5.23-8.48c-0.21,5.13,2.61,10.65,2.92,11.23c-0.2-0.38-1.54-2.78-4-4.89
		c0.8,4.73-1.34,10.11-3.58,13.37c-0.56-0.1-1.01-0.32-1.32-0.63c0.12-3.92,1.44-12.15,4.32-17.8c-2.1,2.97-4.8,7.28-4.8,7.28
		s3.67-11.1,10.58-17.43c-3.77,2.41-10.68,14.42-10.68,14.42s2.84-5.93,2.29-9.16c-0.55-3.23-2.21-7.43-1.25-10.49
		c-2.13,1.07-5.3,6.59-5.3,6.59s3.74-7.2,3.51-9.41c-0.23-2.21-1.87-6.8-4.74-9.27c-0.5,4.08-3.59,7.39-3.59,7.39s3.46-7.76,3.21-12
		c-1.88,7.65-4.09,10.67-4.09,10.67s1.97-6.94,1.42-7.96c-0.55-1.02-5.14-4.52-8.15-5.82c1.14,2.29-0.35,6.35-0.35,6.35
		s-0.9-6.39-3.68-8.05c-2.78-1.66-7.87-3.05-7.87-3.05s2.68,2.97,3.67,8.31c0.99,5.34,1.86,11.13,4.71,12.95
		c2.85,1.83,6.46,4.03,6.46,4.03s-6.34-3.63-10.8-1.08c4.13-0.65,9.58,0.38,13.63,3.53c-3.56,1.05-7.09,0.05-8.48-0.9
		c2.71,3.93,7.99,8.68,7.55,12.61c4.2,1.94,6.09,2.41,6.09,2.41s-6.27-0.09-10.9-2.33c3.79,2.78,11.54,4.38,11.54,4.38
		s-2.68,0.76-4.67,0.31c3.11,1.52,4.78,3.83,6.74,7.84c1.15,2.35,1.63,3.92,1.86,5.03c-0.12-0.03-0.23-0.08-0.34-0.13
		c-0.1-0.24-0.21-0.49-0.33-0.72c-11.21-14.99-30.58-26.92-32.77-27.84s-3.39-1.69-4.9-1.3c-1.5,0.39-16.26,6.37-18.88,7.9
		l2.83,1.99c0,0,8.53-4.79,17.25-6.59c-6.73,2.86-17.44,8.24-17.44,8.24s5.23,1.8,7.09,3.57c3.12-5.16,7.97-7.03,12.62-8
		c-8.52,3.6-10.71,9.64-10.71,9.64l4.63,2.17c0,0,4.2-6.77,7.79-8.3c-2.57,2.38-6.33,8.79-6.48,12.86
		c3.9-10.26,7.94-11.39,7.94-11.39s-2.92,4.64-3.84,7.58c2.68-1.51,4.62,1.42,5.76,0.81c1.14-0.61,6.42-4.56,6.42-4.56
		s-2.41,5.06-2.32,9.07c0.26-1.63,2.24-6.18,2.21-5.89c-0.04,0.29-0.56,4.36-0.56,4.36s-0.2,0.52,1.62,0.85
		c1.51-2.94,4.33-4.4,4.33-4.4s-1.38,2.99-1.51,4.29c-0.13,1.3,1.28,2.3,1.28,2.3s1.31-2.79,2.41-3.71
		c-1.01,2.23-1.08,4.53-1.08,4.53l3.34,1.82c0,0,0.34-2.04,1.88-4.67c0.1,2.44-1.03,7.1-1.03,7.1s1.74,0.15,2.23-0.34
		c0.49-0.49,1.32-1.66,2.23-4.98c0.47,2.66-0.25,4.7-0.25,4.7l3.14,1.97c0,0,0.64-1.85,1.07-1.61c0.28,0.16,1.38,1.75,2.5,2.88
		c-0.01,0.46-0.19,0.86-0.61,1.17c-2.43-0.47-5.15-1.27-8.87-1.93c2.12,1.28,2.48,3.12,2.48,3.12s-6-4.31-8.53-4.38
		c-2.53-0.07-6.5-0.08-6.5-0.08s5.64,0.99,6.8,4.45c-6.72-3.91-12.36-5.64-12.97-5.82c-0.94,0.09-3.3,1.05-3.3,1.05
		s7.4,1.28,14.74,5.37c-6.05-2.29-9.68-3.01-11.8-2.53c-2.12,0.49-6.88,0.74-11.36,6c5.4-1.77,10.48-0.37,10.48-0.37
		s-12.28,2.51-19.39,5.16c8.23-0.85,15.58-2.82,15.58-2.82s-9.6,3.21-10.82,3.88c-1.22,0.66-3.85,4.81-3.85,4.81
		s7.53-3.9,10.86-3.97c-5.65,2.7-10.55,6.71-11.42,8.07c-0.87,1.37-2.76,6.38-2.76,6.38s6.98-8.03,10.84-9.21
		c-5.33,5.55-7.58,9.73-8.4,11.86c-0.82,2.12-3.47,8.09-3.47,8.09s3.82-1.36,5.06-3.09c1.24-1.74,1.69-7.3,6.23-10.65
		c-3.61,6.1-5.21,10.37-5.68,13.93c2.13-5.48,5.15-13,9.32-16.73c-3.98,8.23-5.22,11.27-5.22,11.27s4.09-2.05,5.34-3.95
		c1.25-1.9,3.89-9.01,5.58-11.31c-2.3,5.19-2.88,8.32-2.88,8.32c1.1-1.67,2.93-1.99,3.72-2.99c0.79-1,0.51-4.4,2.02-7.12
		c-0.52,4.12-0.43,8.3-0.09,10.19c1.6-2.96,4.33-3.26,5.63-4.69c1.29-1.43,2.62-4.55,2.62-4.55s-1.57,6.1-0.92,7.65
		c0.85-4.84,2.56-10.43,4.65-13.03c-1.59,4.55-1.97,7.42-1.97,7.42s3-8.78,7.25-10.94c-3.43,5.32-4.95,8.82-4.95,8.82
		s6.07-4.07,8.8-6.87c2.73-2.8,4.81-4.78,7.13-6.38c0.19-0.12,0.34-0.24,0.5-0.36c0.45,0.8,0.49,1.64,0.38,2.23c0,0,0,0,0,0
		c-9.08,32.3-9.08,124.62-9.08,124.62s11.44,5.41,11.82,5.62c-0.42-0.31-8.34-107.76,0.27-131.49c0.14-0.01,0.29,0,0.43,0.01
		c1.08,2.94,2.08,7.15,1.41,9.98c-1.01,4.3,0.28,9.96,0.28,9.96s1.84-5.65,3.21-8.15c-0.75,6.37-2.93,12.65-2.93,12.65
		s2.87-5.05,3.37-7.53c-0.98,6.04-5.94,14.01-5.81,17.85c2.87-6.36,6.48-15.42,6.48-15.42s-2.47,8.99-1.24,12.2
		c1.23,3.21,1.7,5.51,1.7,5.51s4.25-6.53,6.2-7.4c-3.27,5.3-5.62,9.69-5.62,9.69l1.27,2.46c0,0,4.15-6.03,5.64-9.65
		c0.17-0.53,0.34-1.08,0.5-1.66c-0.06,0.44-0.24,1.01-0.5,1.66c-2.5,7.94-4.69,10.84-5.33,12.35c-0.67,1.61,0.01,5.46,0.93,7.23
		c2.48-5.61,5.68-12.19,5.68-12.19s-3.21,10.12-4.27,13.5c-1.06,3.38-1.09,4.38-1.09,4.38s4.18-8.83,5.25-12.76
		c-1.01,7.44-2.94,11.23-3.24,12.53c-0.3,1.3-0.19,3.36,1.43,5.96c1.84-4.49,6.08-15.17,6.15-21.86c1.03,3.73,0.46,9.88,0.46,9.88
		s6.32-8.36,1.16-16.02c2.89,1.93,5.36,7.94,5.78,10.37c0.79-3.08-0.11-7.01-1.69-9.19c-1.58-2.18-4.87-8.15-4.87-8.15
		s4.3,2.58,5.66,5.98c0.44-5.18-1.91-14.23-4.45-17.58c-0.63-1.1-9.43-3.96-9.43-3.96s7.45,1.37,14.81,4.78
		c-7.56-4.6-15.83-6.19-15.91-6.27c-0.07-0.08,3.78-0.76,8.28,1.04c-3.6-5.03-6.85-6.95-8.05-7.11c-1.2-0.16-5.41-0.63-5.41-0.63
		s2.4-0.99,4.47-0.59c-3.17-2.24-5.56-2.21-7.08-3.25c-0.61-0.42-1.5-1.11-2.34-1.78c-0.02-0.91,0.19-1.81,0.64-2.5
		c1.29,0.24,1.96,0.57,1.99,0.8c0.05,0.35-0.98,1.55-0.98,1.55s1.46,0.85,2.7,1.14c0.89-0.97,2.04-4.05,2.04-4.05
		s0.3,2.98-1.01,4.54c0.78,0.77,2.34,0.39,2.34,0.39s1.34-2.49,1.52-4.16c0.24,2.16-0.31,4.2-0.31,4.2s1.72,0.53,2.61,0.4
		c0.57-1.47,1.01-3.22,1.01-3.22s0.45,2.71,0.15,3.49c0.68,0.31,1.41-0.11,1.41-0.11s0.95-2.69,0.94-4.24
		c0.62,2.16,0.63,3.82,0.63,3.82l3.36,0.55c0,0,1.91-3.96,1.2-8.32c1.74,4.95,1.12,8.98,1.12,8.98s1.55-0.01,3.34,2.28
		c1.69-1.69,1.81-7.7,1.84-9.95c1.41,4.12,0.9,7.72,0.04,11.05c1.2,1.03,2.78,2.16,2.78,2.16s4.39-6.24,5.48-8.44
		c-1.35,4.22-5.2,9.3-5.2,9.3l0.47,0.6c0,0,5.77-5.56,6.99-7.62c-2.23,4.77-8.96,12.59-8.96,12.59s6.06-6.29,9.33-11.22
		c-1.2,3.34-7.08,10.88-7.08,10.88l1.7,3.38c0,0,6.34-7.64,8.64-12.71c-0.75,5.2-8.03,13.94-8.03,13.94l0.9,3.73
		c5.27-2.56,11.66-8.02,13.19-12.83C145.86,330.12,143.83,323.14,132.13,319.03z M106.97,312.25c1.32-1.55,2.54-3.18,3.71-4.84
		c2.33-3.34,4.38-6.86,6.25-10.47c0.5-0.89,0.92-1.81,1.39-2.72c0.46-0.91,0.91-1.82,1.33-2.75l1.3-2.77l1.23-2.8l0.62-1.4
		l0.58-1.42l1.18-2.83c0.8-1.88,1.51-3.8,2.31-5.69c-0.28,0.98-0.58,1.97-0.88,2.94c-0.31,0.98-0.59,1.96-0.92,2.93
		c-0.69,1.93-1.32,3.89-2.1,5.79c-1.45,3.84-3.18,7.57-5.05,11.24c-1.91,3.64-4.03,7.19-6.54,10.47c-1.25,1.64-2.58,3.22-4.01,4.7
		c-1.46,1.46-2.98,2.84-4.62,4.07C104.23,315.27,105.67,313.82,106.97,312.25z M105.39,336.23c1.72,2.9,3.18,5.95,4.45,9.07
		c1.24,3.14,2.27,6.35,3.11,9.61c0.87,3.25,1.41,6.58,1.85,9.91c-0.47-1.62-0.8-3.26-1.29-4.86l-0.67-2.42l-0.72-2.4
		c-1-3.18-2.06-6.34-3.3-9.43c-1.23-3.09-2.63-6.12-4.18-9.06c-0.8-1.46-1.6-2.92-2.48-4.34c-0.86-1.43-1.8-2.82-2.78-4.18
		C101.69,330.57,103.67,333.33,105.39,336.23z M89.23,294.22c-1.43-3.52-3.06-6.96-4.85-10.32c-0.45-0.84-0.9-1.67-1.39-2.5
		c-0.46-0.83-0.96-1.65-1.45-2.46c-0.98-1.63-2.04-3.22-3.17-4.77c2.6,2.82,4.8,6,6.76,9.3c1.97,3.3,3.66,6.77,5.13,10.32
		c1.45,3.56,2.68,7.21,3.65,10.93c0.95,3.72,1.61,7.51,2.01,11.32c-0.83-3.74-1.77-7.44-2.85-11.09
		C91.94,301.32,90.69,297.73,89.23,294.22z M86.07,325.82c-1.52,0.36-3,0.84-4.48,1.32l-2.2,0.79l-2.17,0.85l-2.15,0.91l-2.12,0.97
		c-2.82,1.32-5.57,2.79-8.28,4.34l-2.02,1.19c-0.68,0.39-1.33,0.82-2,1.23c-1.36,0.78-2.63,1.7-3.98,2.51
		c2.39-2.04,4.89-3.97,7.54-5.66c2.65-1.71,5.41-3.25,8.26-4.6c2.86-1.34,5.82-2.48,8.86-3.34c1.53-0.41,3.06-0.79,4.63-1.03
		c1.56-0.22,3.14-0.41,4.72-0.29C89.11,325.12,87.58,325.42,86.07,325.82z"/>
	<path d="M95.95,457.23C95.95,457.23,95.95,457.23,95.95,457.23C95.96,457.24,95.96,457.23,95.95,457.23z"/>
</g>
<path d="M573.54,223.38c-5.53-8.14-15.62-9.76-15.62-9.76l-0.65,7l-1.79-8.46l-0.81,7.65c0,0-0.33-3.25-0.81-6.18
	c-10.41-7.32-23.43-5.69-23.43-5.69l-4.88,7c0,0,0.81-4.88,3.25-10.58c-3.25,2.44-7,10.41-7,10.41l-2.82-5.49
	c0.39,0.79,1.76,3.74,1.2,5.98c-0.33-1.95-2.77-6.35-9.92-5.21c2.28,1.3,1.79,7,1.79,7s-2.28-3.74-4.39-6.02
	c-12.18,1.34-22.72,5.35-30.92,9.56c1.76-1.27,2.84-2.08,2.84-2.08l-2.43-3.49c0,0,3.49,1.06,6.07,2.43
	c8.05-3.95,22.32-14.57,22.32-14.57l-3.49-3.64l3.64,1.37l-6.53-6.83c0,0,8.65,5.47,12.3,6.53c3.64-2.58,9.87-8.96,9.87-8.96
	l-4.84-6.19c-1.05-1.14-1.69-2.16-1.69-2.16l1.69,2.16c1.6,1.74,4.15,3.76,6.81,2.85c10.32-6.22,14.27-13.06,14.27-13.06
	l-4.25-10.63l5.47,4.71l-2.58-4.1l5.47,2.13c0,0,18.83-15.64,26.42-25.35c-4.1,1.21-14.4,1.21-24.75,0.76
	c-8.39-0.36-14.12,0.39-14.12,0.39l-2.49-0.75l5.98,12.2c0,0-4.4-5.77-9.26-9.56c-13.06,1.52-29,10.63-29,10.63l3.19,6.83
	l-5.16-5.47l2.43,4.71l-7.29-6.38l10.17,14.12c0,0-5.47-5.92-12.15-7.44c-9.56,7.89-14.57,18.37-14.57,18.37l3.8,9.26l-5.47-5.31
	l-1.97,1.82l5.16,5.77c0,0-4.4-1.67-6.53-2.58c-0.53,0.87-1.02,1.81-1.47,2.8c0.21-9.62-0.51-16.78-0.81-20.46
	c-1.28,0-11.53,5.26-11.53,5.26l16.45-17.13l-15.89,10.12l6.38-13.39c0,0-10.52-21.04-15.62-25.82c-4.78,0.32-7.65,1.59-7.65,1.59
	l6.69-7.65l-4.78-4.14l-7.54,9.98l4.85-13.09c0,0-18.99-9.92-32.7-13.31c4.09,5.18,4.36,33.28,5.46,46.92
	c4.44,1.01,8.74-0.82,10.67-1.84l1.07-0.62c0,0-0.39,0.26-1.07,0.62l-11.21,6.48c0,0,8.73,36.56,17.73,44.47
	c6.82,0.55,12.82-2.46,12.82-2.46l-12.28,9.55c0,0,11.69,15.38,24,23.18c-15.08-6.3-54.32-17.13-114.27,5.35
	c-6.17,2.31-4.08,11.41-6.98,33.04c4.59,5.31,19.81-1.21,19.81-1.21L346,249.66l6.04,16.91l7.97-2.42l-6.52-15.94l7.73,12.08
	l-5.31-13.53l14.01,14.49c0,0,15.94-2.42,23.19-11.59c-3.14-13.04-4.83-19.32-4.83-19.32l9.42,17.63l0.72-7.25l1.93,6.28l0.97-8.21
	l6.76,20.05l-3.86-20.77l6.52,5.8l10.39-4.11c0,0,0.79-7.78-3.27-9.93c5.74,2.51,9.8,9.68,9.8,9.68s13.27-2.63,16.73-3.47
	c-0.22-2.2-1.74-3.76-2.88-4.65l5.27,3.45c0,0,1.96-0.3,4.24-0.61c-7.26,4.75-18.04,13.68-23.97,24.33
	c3.77,0.33,5.73,2.62,5.73,2.62s-8.03-0.98-12.12,0c-4.1,3.93-4.26,5.41-4.26,5.41l12.45,1.97l-9.99-0.16l7.04,3.44
	c0,0-9.17-1.47-11.47-0.98c-5.08,7.37-10.16,23.92-10.48,28.51c2.95,0.49,9.67,3.77,9.67,3.77l-7.54-1.47l6.23,3.93l-9.5,0.33
	c0,0-1.31,14.74,1.15,24.08c2.62,0.82,6.06,0.49,6.06,0.49l-7.54,2.13c0,0,6.72,12.12,11.8,20.31c7.04-9.67,17.53-31.95,19-43.09
	c-3.6-1.8-7.86-3.11-7.86-3.11l7.21,0.66l-3.28-1.15l4.42-0.16l3.11-4.42l-6.88-4.42l6.06,0.98c0,0,10.16-20.81,15.07-33.91
	c-2.29-2.46-6.23-4.42-6.23-4.42l4.26,0.49l-3.28-2.29l5.08-0.16c0,0,3.24-15.25,6.11-24.21c0.25,0.08,0.49,0.16,0.74,0.23
	c0.04-0.13,0.07-0.25,0.11-0.38c2.85,3.02,6.79,8.07,10,12.34c15.38,24.62,39.54,83.94,42.45,246.73c13.93,0,22.03-7.37,22.03-7.37
	s-13.32-153.49-50.12-226.4c5.63,6.04,12.54,17.21,15.35,19.72c2.8-0.37,7.66-3.36,7.66-3.36l-6.73,8.22l9.16-5.79l-6.17,6.17
	c0,0,10.01,17.84,17.48,20.84c6.1-1.48,13.78-3.35,13.78-3.35l-15.06,13.39l1.18,1.64l17.03-15.03l-10.68,14.47l1.68,1.68l8.97-8.6
	l-7.48,9.91c0,0,7.29,9.91,15.7,11.03c11.03-14.02,14.58-24.86,9.91-32.52c-2-3.27-30.79-35.99-52.51-47.66
	c-13.67-7.35-26.43-11.97-34.85-14.59c-0.67-0.74-1.34-1.46-2.03-2.15c14.34,1.77,33.35,6.96,33.35,6.96v-5.53l3.09,5.86L500,230.7
	c0,0,1.46,7,4.39,10.41c6.83,1.79,26.85-2.93,26.85-2.93l0.49-10.09l5.53,8.46l0.81-10.9c0,0,3.74,21.31,9.6,26.03
	c-4.56-8.46-6.67-27.01-6.67-27.01s3.74,10.74,18.22,10.25s34.49,5.04,34.49,5.04S579.08,231.51,573.54,223.38z M478.47,201.03
	c2.68-3.43,5.55-6.72,8.49-9.95c0.71-0.83,1.51-1.58,2.26-2.37l2.29-2.34l2.38-2.25c0.8-0.74,1.57-1.52,2.4-2.23
	c3.29-2.88,6.66-5.67,10.19-8.24l2.65-1.92c0.88-0.65,1.8-1.23,2.7-1.85l2.71-1.82c0.91-0.6,1.85-1.15,2.77-1.73
	c7.4-4.61,15.06-8.72,22.89-12.49c-7.38,4.59-14.77,9.12-21.93,13.96c-0.89,0.61-1.8,1.2-2.68,1.83l-2.64,1.88
	c-0.87,0.63-1.77,1.23-2.63,1.89l-2.57,1.96c-3.44,2.6-6.75,5.36-9.97,8.22c-0.82,0.69-1.59,1.46-2.38,2.18l-2.36,2.2
	c-1.51,1.53-3.05,3.04-4.55,4.59l-2.22,2.35l-1.11,1.18c-0.37,0.4-0.72,0.81-1.08,1.21l-2.15,2.42c-0.36,0.4-0.73,0.8-1.08,1.21
	l-1.05,1.24c-5.63,6.57-10.98,13.39-16.42,20.17C468.08,214.99,473.06,207.86,478.47,201.03z M446.78,194.69l-1.07-3.06l-1.1-3.05
	l-1.09-3.05l-1.11-3.04c-0.74-2.03-1.48-4.06-2.26-6.08c-1.49-4.06-3.05-8.09-4.6-12.12l-2.34-6.05c-0.81-2.01-1.6-4.02-2.38-6.04
	l-9.62-24.13c4.03,7.68,7.75,15.52,11.25,23.45c0.87,1.98,1.74,3.97,2.58,5.97l2.49,6.01c1.62,4.02,3.2,8.06,4.73,12.12
	c0.76,2.03,1.49,4.07,2.22,6.12c0.73,2.04,1.46,4.08,2.14,6.14l1.03,3.09l1,3.1c0.33,1.03,0.67,2.06,0.99,3.1l0.93,3.12
	c0.63,2.08,1.22,4.17,1.79,6.26c0.58,2.09,1.1,4.2,1.64,6.3c0.99,4.23,1.93,8.47,2.59,12.76c-1.14-4.19-2.36-8.33-3.65-12.46
	c-1.3-4.12-2.64-8.23-4.04-12.32L446.78,194.69z M442.42,255.61l-3.26,5.99c-1.06,2.01-2.07,4.05-3.11,6.07l-2.96,6.14l-2.77,6.22
	l-2.6,6.29l-2.38,6.38l-2.19,6.45l-1.97,6.52c-2.49,8.74-4.38,17.65-5.83,26.68c0.51-9.13,1.93-18.22,4.13-27.13
	c0.56-2.22,1.18-4.43,1.78-6.65l2.06-6.57c0.76-2.16,1.56-4.32,2.34-6.48l2.58-6.38l2.85-6.27c1.02-2.05,2.01-4.13,3.05-6.17
	c1.09-2.02,2.17-4.04,3.28-6.05c1.15-1.98,2.29-3.97,3.48-5.93c4.45-7.31,9.33-14.35,14.59-21.08c0.07-0.01,0.14-0.02,0.21-0.02
	C451.09,240.86,446.59,248.15,442.42,255.61z M482.12,249.78c0,0-1.13,2.53-2.39,4.21c-0.29-0.54-0.59-1.07-0.88-1.59L482.12,249.78
	z M458.2,232.6c0.01-0.03,0.02-0.07,0.03-0.1c0.03,0.04,0.07,0.09,0.1,0.13C458.29,232.62,458.24,232.61,458.2,232.6z
	 M551.79,223.95c-4.68-0.79-9.39-1.39-14.13-1.7c-4.73-0.34-9.48-0.46-14.23-0.37c-4.75,0.06-9.5,0.35-14.24,0.77
	c-4.74,0.4-9.46,1.02-14.18,1.71c-9.42,1.42-18.78,3.37-28.07,5.66c9.04-3.18,18.34-5.63,27.78-7.39c4.72-0.9,9.48-1.57,14.26-2.1
	c4.78-0.5,9.59-0.8,14.4-0.91c4.82-0.06,9.64,0.09,14.44,0.5c4.8,0.44,9.58,1.09,14.3,2.1c9.42,1.99,18.61,5.31,26.88,10.15
	C570.3,228.37,561.14,225.6,551.79,223.95z"/>
<path d="M635.47,398.59c1.89-3.29,1.09-3.66,1.09-3.66l-3.02,3l1.26-2.08l-2.25,1.82c0,0,0.94-1.36,0.83-1.83
	c-4.01-5.11-12.79-7.72-12.79-7.72l-2.1,2.42c0,0,1.43-2.54,1.09-6c-0.41,2.08-2.25,6.14-2.25,6.14s-0.05-2.25-0.65-2.39
	c-0.36,1.72-1.98,2.32-1.98,2.32s0.66-1.08,0.45-3.08c-2.94-1.3-7.74-2.23-12.41-2.87c2.2-0.81,3.64-1.72,3.64-1.72l0.51-3.14
	l1.82,2.24l-0.65-3.08l2.13,3.94l-1.46-5.77c0,0,3.07,2.19,2.99,4.45c5.01-1.83,16.91-1.38,22.65,0.67
	c-1.72-6.43-6.3-10.24-6.3-10.24l-0.37,2.05c0,0-0.09-1.71-1.43-2.38c-4.89-2.46-10.13-2.43-10.13-2.43l-0.05,3.09l-1.08-2.78
	l-5.63,0.86l0.72,2.18c0,0-0.54-1.24-2.05-1.37c-5.49,1.48-9.13,3.65-11.69,5.84l-2.57-1.22c0,0,2.84-0.17,3.63-0.48
	c2.59-4.53,5.49-11.53,5.49-11.53l4.87,1.23l-6.24-3.12l3.11,1.01l0.31-1.2l-3.82-3.17c0,0,2.58-0.02,3.44-0.64
	c1.05-6.75,4.3-17.32,4.3-17.32s-2.4,2.71-6.6,4.53c-4.2,1.83-6.6,1.94-9.37,4.08c1.39,1.84,4.66,4.1,4.66,4.1s-2.45-0.38-5.48-0.89
	c-4.53,3.7-5.21,5.68-5.21,5.68l3.71,4.08l-12.55-5.17l11.87,6.12l-5.34-1.31l-0.27,1.34l4.23,3.05c0,0-3.89-1.67-4.71-1.43
	c-0.04,8,3.64,13.63,6.83,18.53c-0.01,0.04-0.02,0.08-0.03,0.12c-2.04-3.07-10.44-15.42-16.02-19.48c-1.84,0.83-2.44,1.94-2.44,1.94
	s-0.29-1.71,1.02-2.88c-0.42-0.45-2.4,0.63-2.4,0.63s2.59-3.63,4.18-5.03c-3.16,1.43-4.65,3.95-4.65,3.95l1.04-3.03
	c0,0-6.65-6.29-13.09-7.19c-0.46,0.14-1.17,1.63-1.17,1.63l0.45-2.86l-1.16,2.14l1.08-4.12c0,0-0.72-0.5-2.62,2.78
	c-4.64-1.65-12.15-1.09-12.15-1.09s6.27,4.75,9.47,12.7c1.44-1.43,1.52-2.88,1.52-2.88s0.63,2.4-0.94,7.52
	c1.56,1.91,3.39,1.3,3.39,1.3s2.13-2.28,2.45-3.87c0.02,0.78-2.28,5.91-2.28,5.91s2.54-3.54,3.21-5.18c-0.14,2.19-0.95,4.8-0.95,4.8
	s3.52,4.41,8.89,7.07c1.45,0.29,3.16-3.15,3.16-3.15l-1.22,4.88l2.28-4.19c0,0-0.92,6.87-0.63,8.58c0.88-3.34,1.24-4.31,1.24-4.31
	s3.67,3.44,9.85,2.77c3.53-0.38,5.94,0.12,7.36,0.63c-0.04,0-0.06,0-0.06,0s0.17,0.08,0.45,0.25c-2.61,0.24-8.19,1.14-13.52,4.66
	c0.83,0.21,2.78,1.34,2.78,1.34s-3.58-1.15-5.36-0.45c-0.63,0.32-1.48,1.25-1.48,1.25s3.4,0.53,4.83,1.55
	c-1.82-0.5-5.44-0.88-5.44-0.88s4.2,1.24,4.85,1.77c-3.8-0.5-6.01-0.35-7.14,0.39c-1.13,0.74-4.86,6.3-5.68,12.08
	c1.4-0.01,3.62,0.65,3.62,0.65s-5.72-0.44-8.16,0.6c4.35-0.06,6.6,0.99,6.6,0.99l-3.33,0.03l2.51,0.88c0,0-2.1-0.24-3.07,0.14
	c-1.48,3.55-0.02,10.82-0.02,10.82l1.9,0.48l-2.07,0.16c0,0,2.83,8.54,3.5,12.49c3.79-6.57,5.98-16.9,5.98-16.9l-1.63-0.65
	l2.38,0.29l0.69-1.02l-2.51-0.57l4.32,0.13l-3.61-1.24l3.48-0.57c0,0,3.83-5.81,6.55-9.77c-0.49-1.21-2.98-1.87-2.98-1.87l2.71,0.47
	l-0.55-0.79l2.4,0.65c0,0,3.51-2.77,5.79-5.65c-3.09,17.72-7.21,52.01-2.79,87.88c6.34,1.41,17.61-1.41,17.61-1.41
	s-10.26-12.97-12.72-37.27c-1.97-19.36-3.12-32.53,1.3-59.24c1.06,1.07,2.35,2.76,3.5,5.37c2.52,5.69,7.33,7.13,7.33,7.13
	s-0.66,0.8-3.11,3.24c1.62-0.61,7.1-4.85,7.1-4.85l-2.48,4.07l3.61-3.5c0,0-2.12,3.21-1.14,4.32c4.99,3.32,10.57,4.15,10.57,4.15
	s1.85-2.01,3.67-3.23c-1.08,1.4-2.87,5.37-2.87,5.37s3.28-4.55,3.97-4.93c-1.22,1.08-2.13,4.06-2.13,4.06s0.39,1.89,2.82,2.29
	c3.64-3.93,6.03-4.59,6.03-4.59s-1.22,0.79-1.73,2.76c8.48-1.22,15.74,1.83,15.74,1.83S639.22,401.78,635.47,398.59z M591.85,382.08
	c-0.02-0.04-0.03-0.07-0.05-0.09c0.38-0.51,0.79-0.99,1.21-1.43C592.58,381.1,592.2,381.61,591.85,382.08z M603.68,375.93l1.12-0.44
	c0.37-0.14,0.74-0.3,1.12-0.43l1.15-0.36c0.39-0.11,0.76-0.25,1.16-0.33l1.18-0.26c0.78-0.2,1.59-0.26,2.38-0.38
	c0.2-0.02,0.4-0.06,0.6-0.07l0.6-0.02l1.21-0.04c0.4-0.02,0.8,0.03,1.21,0.04l1.21,0.06c0.8,0.12,1.6,0.21,2.38,0.35
	c0.78,0.18,1.57,0.32,2.34,0.55c3.08,0.86,6,2.18,8.73,3.78c-2.93-1.18-5.9-2.25-8.94-2.93c-3.03-0.69-6.15-0.95-9.22-0.6
	c-3.07,0.31-6.07,1.2-8.95,2.39c-2.88,1.2-5.65,2.7-8.4,4.26c2.49-1.94,5.17-3.67,8.05-5.05
	C602.96,376.28,603.31,376.1,603.68,375.93z M592.35,369.57c0.21-0.68,0.41-1.36,0.65-2.03c0.25-0.66,0.48-1.34,0.75-2
	c0.27-0.66,0.55-1.31,0.84-1.96c0.3-0.64,0.59-1.29,0.9-1.93c0.64-1.27,1.3-2.52,1.98-3.76c0.7-1.23,1.41-2.45,2.15-3.65
	c1.47-2.41,3.01-4.77,4.6-7.11c-1.19,2.57-2.52,5.06-3.85,7.54l-1.98,3.72l-0.97,1.86c-0.32,0.62-0.62,1.25-0.94,1.88
	c-0.32,0.62-0.61,1.26-0.91,1.89c-0.3,0.63-0.56,1.28-0.86,1.91c-0.28,0.64-0.54,1.29-0.81,1.93l-0.74,1.96
	c-0.94,2.63-1.67,5.33-2.17,8.12C591.04,375.12,591.55,372.29,592.35,369.57z M576.76,371.85c-1.37-1-2.73-2.02-4.11-3.01
	l-2.06-1.49l-2.08-1.47l-2.08-1.47l-2.09-1.45c-1.39-0.97-2.8-1.91-4.21-2.86c-2.82-1.89-5.67-3.73-8.56-5.53
	c3.11,1.39,6.11,3.04,9.03,4.8c1.47,0.87,2.9,1.8,4.33,2.72c1.42,0.94,2.83,1.9,4.23,2.88c2.78,1.98,5.5,4.03,8.14,6.19
	c2.63,2.16,5.2,4.42,7.57,6.87C582.18,375.93,579.48,373.88,576.76,371.85z M578.8,395.24c-0.6,0.7-1.13,1.45-1.7,2.18
	c-0.57,0.72-1.08,1.49-1.61,2.24c-0.54,0.74-1.03,1.52-1.53,2.29c-0.24,0.39-0.51,0.77-0.74,1.16l-0.69,1.19
	c-0.23,0.4-0.47,0.79-0.7,1.19l-0.65,1.22l-0.65,1.22l-0.59,1.24c-0.4,0.83-0.81,1.65-1.15,2.51l-0.53,1.27
	c-0.19,0.42-0.35,0.85-0.5,1.28c-1.3,3.44-2.27,7.01-2.83,10.68c0.09-3.72,0.84-7.42,2.01-10.97c0.25-0.9,0.62-1.76,0.95-2.64
	c0.32-0.88,0.71-1.73,1.09-2.58c0.19-0.43,0.38-0.85,0.59-1.27l0.65-1.24l0.65-1.24c0.23-0.41,0.47-0.81,0.7-1.21
	c1.9-3.22,4.08-6.27,6.56-9.07c2.48-2.78,5.24-5.35,8.37-7.36C583.66,389.7,581.13,392.39,578.8,395.24z M586.29,390.4l2.65,0.65
	c-0.08,0.41-0.16,0.84-0.24,1.28C587.47,391.27,586.29,390.4,586.29,390.4z M625.75,398.1c-1.53-0.74-3.05-1.49-4.59-2.21l-2.3-1.09
	l-2.31-1.06l-2.31-1.06l-2.32-1.04c-1.55-0.7-3.11-1.36-4.66-2.05c-3.03-1.3-6.08-2.57-9.15-3.8c0.03,0,0.06-0.01,0.1-0.01
	c3.18,0.81,6.3,1.86,9.38,3.01c3.19,1.19,6.33,2.52,9.44,3.93c1.54,0.72,3.08,1.45,4.61,2.21c1.52,0.78,3.04,1.55,4.53,2.38
	c2.98,1.65,5.91,3.41,8.68,5.41C631.82,401.13,628.79,399.6,625.75,398.1z"/>
<path d="M324.03,100.75c0,0,18.56-10.82,42.91-3.09c7.73-17.4,28.61-30.16,28.61-30.16s-24.36,6.19-30.54,23.2
	C345.68,87.22,334.09,91.08,324.03,100.75z"/>
<path d="M256.65,354.78c0,0,8.24-0.65,15.39,6.1c5.59-4.74,14.95-5.67,14.95-5.67s-9.47-1.93-14.46,2.93
	C266.41,353.71,261.75,353.11,256.65,354.78z"/>
<path d="M216.91,368.08c0,0,13.87,1.55,23.57,15.02c10.78-6.07,26.61-4.63,26.61-4.63s-15.1-6.22-24.92,0.25
	C233.44,369.42,225.9,366.94,216.91,368.08z"/>
<path d="M296.7,73.84c0,0,12.36-3.99,25.74,3.74c6.82-9.27,20.81-14.1,20.81-14.1s-15.19,0.49-21.05,9.74
	C311.24,68.65,303.89,69.43,296.7,73.84z"/>
<path d="M320.25,43.27c0,0,7.69-3.53,16.94,0.43c3.7-6.52,12.37-10.72,12.37-10.72s-9.78,1.49-12.86,7.92
	C329.26,38.8,324.56,39.87,320.25,43.27z"/>
</svg>
